Jump_normalized_Motion_pl10
version=1
nRows=25
nColumns=43
inDegrees=yes
endheader
time		pelvis_tilt		pelvis_list		pelvis_rotation		pelvis_tx		pelvis_ty		pelvis_tz		hip_flexion_r		hip_adduction_r		hip_rotation_r		knee_angle_r		ankle_angle_r		subtalar_angle_r		mtp_angle_r		hip_flexion_l		hip_adduction_l		hip_rotation_l		knee_angle_l		ankle_angle_l		subtalar_angle_l		mtp_angle_l		lumbar_extension		lumbar_bending		lumbar_rotation		neck_flexion		neck_lateral_bending		neck_rotation		arm_flex_r		arm_add_r		arm_rot_r		elbow_flex_r		pro_sup_r		wrist_flex_r		wrist_dev_r		hand_finger_flex_r		arm_flex_l		arm_add_l		arm_rot_l		elbow_flex_l		pro_sup_l		wrist_flex_l		wrist_dev_l		hand_finger_flex_l		
0.060000		-1.462658		-13.678253		85.962407		-0.023752		1.621961		1.691747		93.214531		-9.283614		10.033303		-138.326746		27.259897		10.657849		5.151640		88.364483		-7.093914		2.685802		-141.753778		30.836910		7.960906		5.545381		-55.433585		-3.416773		0.065735		34.542887		4.673196		-0.804854		48.991265		-30.503218		6.174445		72.125264		109.027569		1.142476		-1.952511		-3.416605		46.287809		-21.857220		-1.539640		74.188766		95.274810		-7.176035		6.226456		-9.103622		
0.063056		-1.468871		-13.718689		85.972225		-0.024079		1.621905		1.690656		93.119440		-9.330651		10.080880		-138.340608		27.301857		10.611772		5.264946		88.244842		-7.021744		2.630432		-141.770168		30.868061		7.865311		5.579895		-55.279196		-3.459403		0.084906		34.492574		4.742987		-0.852607		49.887711		-30.414874		6.606408		71.911349		109.246527		1.198856		-1.889323		-3.574584		47.337662		-21.798696		-1.118141		73.920414		95.380116		-7.187892		6.192242		-9.262058		
0.066111		-1.468885		-13.747875		85.974056		-0.024398		1.621801		1.689527		93.017539		-9.373860		10.128932		-138.374801		27.360220		10.567816		5.387566		88.115920		-6.960390		2.564437		-141.800488		30.905304		7.742089		5.616763		-55.119673		-3.506565		0.111574		34.407436		4.813230		-0.906771		50.783160		-30.345258		7.073196		71.701682		109.501489		1.267296		-1.840226		-3.755418		48.386147		-21.762236		-0.660221		73.648645		95.493614		-7.176636		6.140560		-9.445408		
0.069167		-1.459896		-13.783744		85.973621		-0.024679		1.621687		1.688385		92.915567		-9.401278		10.164445		-138.408682		27.424678		10.533903		5.514273		87.988013		-6.910897		2.505442		-141.829237		30.940958		7.598688		5.655435		-54.951048		-3.556429		0.150987		34.311785		4.874241		-0.963379		51.661577		-30.277274		7.529327		71.508253		109.777454		1.328691		-1.807840		-3.961172		49.440281		-21.718674		-0.199989		73.383048		95.602277		-7.152901		6.071841		-9.659123		
0.072222		-1.437513		-13.837896		85.967778		-0.024946		1.621566		1.687245		92.831732		-9.423172		10.180196		-138.440049		27.488032		10.511724		5.630925		87.883383		-6.869800		2.462612		-141.856123		30.971662		7.457670		5.693179		-54.765316		-3.598776		0.211695		34.244112		4.932687		-1.023108		52.520031		-30.199583		7.946072		71.350723		110.044573		1.379021		-1.785821		-4.168606		50.485667		-21.653772		0.245748		73.124080		95.700007		-7.120113		6.005145		-9.882238		
0.075278		-1.398063		-13.894521		85.973377		-0.025185		1.621436		1.686090		92.736980		-9.442830		10.173349		-138.474421		27.552579		10.493999		5.742353		87.783463		-6.836323		2.438359		-141.888472		30.994677		7.314340		5.733341		-54.571486		-3.637322		0.293520		34.162305		4.997085		-1.098141		53.357984		-30.152658		8.368180		71.206323		110.319177		1.426617		-1.764777		-4.389436		51.557703		-21.580376		0.732090		72.852235		95.804485		-7.083936		5.930330		-10.132231		
0.078333		-1.346569		-13.952615		85.982299		-0.025442		1.621334		1.684925		92.633356		-9.472319		10.150016		-138.508772		27.612983		10.478262		5.844797		87.691180		-6.798253		2.431960		-141.916280		31.005613		7.190265		5.776382		-54.377869		-3.664330		0.393391		34.084764		5.063357		-1.185213		54.179226		-30.104909		8.756042		71.087125		110.572021		1.466452		-1.749012		-4.619182		52.640657		-21.482367		1.231263		72.569803		95.915342		-7.062010		5.841253		-10.399754		
0.081389		-1.290363		-13.998385		86.011482		-0.025653		1.621272		1.683727		92.501746		-9.506522		10.118930		-138.542616		27.670719		10.456956		5.949277		87.587326		-6.757645		2.438761		-141.947873		31.006121		7.085410		5.827969		-54.193538		-3.690322		0.499714		33.984509		5.129855		-1.287474		54.979351		-30.073432		9.132530		70.975950		110.804891		1.512738		-1.741129		-4.877544		53.739668		-21.371576		1.765363		72.275808		96.036665		-7.057909		5.717758		-10.699226		
0.084444		-1.240080		-14.064706		86.028990		-0.025932		1.621220		1.682503		92.399028		-9.546511		10.094986		-138.571298		27.720775		10.435234		6.034559		87.496034		-6.709719		2.448122		-141.972950		31.003214		7.025601		5.877741		-53.990381		-3.705122		0.597205		33.929740		5.195645		-1.383595		55.777332		-29.997125		9.459889		70.875063		110.966626		1.571103		-1.730453		-5.106283		54.807922		-21.251707		2.252810		71.989001		96.144721		-7.061310		5.607950		-10.953287		
0.087500		-1.194657		-14.113180		86.054440		-0.026169		1.621177		1.681231		92.268273		-9.577734		10.081875		-138.608565		27.766061		10.404888		6.115986		87.380928		-6.664329		2.464480		-142.006413		30.998183		6.988879		5.933455		-53.795305		-3.731159		0.683039		33.822284		5.268978		-1.486291		56.578445		-29.939787		9.817647		70.752476		111.083224		1.655274		-1.721764		-5.347094		55.893179		-21.145735		2.785535		71.694935		96.252542		-7.078569		5.475332		-11.199573		
0.090556		-1.159219		-14.148539		86.072190		-0.026337		1.621191		1.679908		92.121431		-9.585522		10.086837		-138.642391		27.793983		10.372679		6.194600		87.243114		-6.624137		2.485498		-142.038561		30.997292		6.977750		5.996115		-53.611170		-3.776653		0.763264		33.702744		5.340497		-1.579627		57.373157		-29.862370		10.162311		70.619992		111.123140		1.754425		-1.728597		-5.607247		56.964039		-21.035527		3.300891		71.409997		96.324752		-7.118918		5.317824		-11.427553		
0.093611		-1.129123		-14.189635		86.063670		-0.026516		1.621187		1.678545		91.991783		-9.571277		10.107628		-138.682939		27.806840		10.347602		6.263701		87.099321		-6.589959		2.511837		-142.075374		31.000732		6.983859		6.057258		-53.417825		-3.831186		0.846055		33.595690		5.421031		-1.660579		58.181097		-29.765272		10.503122		70.483862		111.102806		1.867803		-1.737669		-5.852688		58.019667		-20.933465		3.798104		71.133703		96.356414		-7.155359		5.177252		-11.608433		
0.096667		-1.099548		-14.209505		86.053141		-0.026618		1.621199		1.677126		91.832721		-9.527291		10.138556		-138.730589		27.802320		10.329384		6.336719		86.932738		-6.577692		2.552396		-142.126799		31.006516		7.000394		6.126928		-53.237369		-3.907792		0.932289		33.456130		5.507440		-1.737785		58.978558		-29.690129		10.856609		70.333128		111.020332		1.998399		-1.754436		-6.129570		59.088990		-20.830087		4.332017		70.858547		96.347496		-7.206050		5.014905		-11.782169		
0.099722		-1.063579		-14.237460		86.027446		-0.026736		1.621204		1.675678		91.687154		-9.465442		10.172957		-138.780256		27.784737		10.329167		6.407070		86.776049		-6.566874		2.606258		-142.183075		31.010974		7.024305		6.197517		-53.048969		-3.986817		1.037491		33.342823		5.593051		-1.807736		59.761571		-29.606616		11.176381		70.204519		110.888190		2.131082		-1.767738		-6.405702		60.147807		-20.717476		4.852245		70.595156		96.304277		-7.259338		4.865395		-11.930014		
0.102778		-1.010058		-14.175876		85.974590		-0.026838		1.621379		1.674150		91.437387		-9.357319		10.201563		-138.825345		27.752512		10.339580		6.532296		86.490494		-6.562802		2.694851		-142.231744		31.001091		7.077964		6.326998		-52.946619		-4.083911		1.226210		33.048961		5.709885		-1.925672		60.510858		-29.648672		11.512585		70.154045		110.540620		2.327080		-1.819841		-6.913674		61.256297		-20.616653		5.572421		70.278117		96.158664		-7.416686		4.568624		-12.166448		
0.105833		-0.974392		-14.341604		85.982540		-0.027009		1.621308		1.672645		91.409804		-9.308097		10.246022		-138.843309		27.736709		10.372434		6.564289		86.471671		-6.505517		2.767559		-142.262454		31.002376		7.076476		6.360017		-52.643167		-4.115373		1.284418		33.170951		5.724296		-1.951169		61.206811		-29.424525		11.625297		70.111851		110.466668		2.388141		-1.783611		-7.033340		62.191007		-20.418209		5.816676		70.155486		96.144398		-7.416968		4.552570		-12.211237		
0.108889		-0.914749		-14.429956		85.989285		-0.027179		1.621144		1.671092		91.321583		-9.281046		10.266704		-138.921330		27.700076		10.442063		6.616167		86.395279		-6.484634		2.836124		-142.352361		30.981444		7.080746		6.412679		-52.370033		-4.150453		1.415265		33.143510		5.792780		-2.023420		61.950883		-29.341371		11.876438		70.002142		110.315365		2.539869		-1.723640		-7.203949		63.257218		-20.294348		6.370465		69.886648		96.160422		-7.400281		4.526107		-12.283387		
0.111944		-0.852109		-14.485850		86.014413		-0.027336		1.621094		1.669486		91.162358		-9.262330		10.293358		-138.982795		27.665827		10.526389		6.685121		86.268339		-6.453860		2.911979		-142.417684		30.959076		7.079257		6.484059		-52.137011		-4.185378		1.561306		33.051469		5.859006		-2.124836		62.651925		-29.292446		12.079251		69.935547		110.048639		2.697282		-1.682040		-7.437597		64.347163		-20.132654		6.954036		69.597658		96.169723		-7.444615		4.440145		-12.400613		
0.115000		-0.796456		-14.557100		86.054791		-0.027525		1.621116		1.667860		91.023191		-9.260573		10.328800		-139.026343		27.637235		10.605783		6.753430		86.139597		-6.399442		2.966098		-142.461348		30.947596		7.061159		6.556672		-51.897707		-4.202951		1.679388		33.004830		5.913028		-2.226425		63.327016		-29.211050		12.236352		69.904344		109.750706		2.834185		-1.647113		-7.667957		65.386436		-19.940001		7.464357		69.348099		96.172775		-7.486379		4.355982		-12.514030		
0.118056		-0.746778		-14.636168		86.103721		-0.027782		1.621128		1.666203		90.892384		-9.276703		10.371822		-139.078970		27.600383		10.684249		6.820327		85.987510		-6.327499		2.992280		-142.484813		30.943932		7.025954		6.629763		-51.647788		-4.206215		1.779284		32.950640		5.978117		-2.329092		64.019604		-29.122550		12.407443		69.857185		109.424127		2.967925		-1.607858		-7.888165		66.423935		-19.757670		7.964581		69.089831		96.172386		-7.503537		4.300747		-12.621514		
0.121111		-0.708216		-14.697286		86.164886		-0.028012		1.621200		1.664521		90.731253		-9.303639		10.427687		-139.120478		27.551407		10.756565		6.890912		85.813526		-6.256704		3.005486		-142.503003		30.955143		6.981269		6.710598		-51.414600		-4.221204		1.854034		32.861191		6.055727		-2.435320		64.711735		-29.049319		12.601913		69.800129		109.036548		3.097666		-1.569395		-8.123916		67.461561		-19.572894		8.477506		68.834603		96.150853		-7.518331		4.242755		-12.739755		
0.124167		-0.674512		-14.749232		86.223922		-0.028241		1.621311		1.662825		90.568876		-9.327426		10.489481		-139.166912		27.493289		10.814656		6.964707		85.608115		-6.185755		3.006221		-142.507939		30.978841		6.941664		6.798922		-51.191638		-4.236761		1.919180		32.762746		6.144915		-2.540613		65.412957		-28.978199		12.816252		69.736150		108.596461		3.208665		-1.523354		-8.377787		68.500318		-19.392648		8.990321		68.574186		96.100899		-7.535968		4.181830		-12.868140		
0.127222		-0.654834		-14.679199		86.280584		-0.028463		1.621662		1.661037		90.274426		-9.348105		10.578768		-139.212391		27.406558		10.851600		7.106493		85.220345		-6.098445		2.986606		-142.482362		31.001470		6.923812		6.972519		-51.097486		-4.283599		2.017767		32.463438		6.306136		-2.709980		66.101848		-29.071283		13.129805		69.753135		107.702218		3.319050		-1.453800		-8.882488		69.607297		-19.242228		9.729331		68.265676		95.918016		-7.637138		3.981037		-13.120747		
0.130278		-0.614022		-14.825285		86.318136		-0.028659		1.621663		1.659314		90.210469		-9.332591		10.622697		-139.260773		27.359983		10.868236		7.164394		85.104411		-6.065827		3.001241		-142.481893		31.027977		6.920075		7.046658		-50.790168		-4.295851		2.049739		32.548352		6.338447		-2.762347		66.776186		-28.883586		13.264829		69.716051		107.397908		3.330553		-1.364771		-9.088851		70.542004		-19.023611		10.015323		68.097468		95.850503		-7.644706		3.954022		-13.203655		
0.133333		-0.578090		-14.906471		86.363637		-0.028792		1.621771		1.657566		90.064254		-9.314731		10.659056		-139.296372		27.250238		10.875370		7.228232		84.924194		-6.024940		3.049494		-142.480460		31.051834		6.946927		7.139133		-50.529224		-4.326140		2.104927		32.417766		6.448583		-2.864309		67.470577		-28.830825		13.546115		69.677202		107.004911		3.368480		-1.238524		-9.301150		71.598474		-18.917321		10.590234		67.840946		95.824627		-7.596964		3.933333		-13.279663		
